PathFileType	4	(X/Y/Z)	/home/nbianco/projects/addbio/data/HamnerRunning2013/Processed/subject19//results/MarkerData/run400.trc
DataRate	CameraRate	NumFrames	NumMarkers	Units	OrigDataRate	OrigDataStartFrame	OrigNumFrames
120.005	120.005	10	42	m	120.005	122	244
Frame#	Time	C7			CLAV			LACR			LASI			LCAL			LFAradius			LFAsuperior			LFAulna			LLEL			LMEL			LMT5			LPSI			LTB1			LTB2			LTB3			LTH1			LTH2			LTH3			LTOE			LUA1			LUA2			LUA3			RACR			RASI			RCAL			RFAradius			RFAsuperior			RFAulna			RLEL			RMEL			RMT5			RPSI			RTB1			RTB2			RTB3			RTH1			RTH2			RTH3			RTOE			RUA1			RUA2			RUA3		
		X1	Y1	Z1	X2	Y2	Z2	X3	Y3	Z3	X4	Y4	Z4	X5	Y5	Z5	X6	Y6	Z6	X7	Y7	Z7	X8	Y8	Z8	X9	Y9	Z9	X10	Y10	Z10	X11	Y11	Z11	X12	Y12	Z12	X13	Y13	Z13	X14	Y14	Z14	X15	Y15	Z15	X16	Y16	Z16	X17	Y17	Z17	X18	Y18	Z18	X19	Y19	Z19	X20	Y20	Z20	X21	Y21	Z21	X22	Y22	Z22	X23	Y23	Z23	X24	Y24	Z24	X25	Y25	Z25	X26	Y26	Z26	X27	Y27	Z27	X28	Y28	Z28	X29	Y29	Z29	X30	Y30	Z30	X31	Y31	Z31	X32	Y32	Z32	X33	Y33	Z33	X34	Y34	Z34	X35	Y35	Z35	X36	Y36	Z36	X37	Y37	Z37	X38	Y38	Z38	X39	Y39	Z39	X40	Y40	Z40	X41	Y41	Z41	X42	Y42	Z42

123	1.65833	1.05781	1.53769	-0.355937	1.16695	1.45043	-0.344536	1.0679	1.49978	-0.530034	1.1115	1.03355	-0.445737	1.26414	0.146444	-0.385324	1.02494	1.17046	-0.560699	0.875247	1.29538	-0.598101	0.974543	1.1286	-0.576538	0.813446	1.34699	-0.58066	0.812334	1.34671	-0.507038	1.46261	0.0885977	-0.440113	0.946817	1.06362	-0.380212	1.33894	0.474163	-0.430266	1.31594	0.370357	-0.473083	1.36034	0.281957	-0.407972	1.09052	0.872771	-0.524613	1.20443	0.803758	-0.51013	1.18891	0.664571	-0.485582	1.46984	0.147002	-0.350147	1.00064	1.47187	-0.569042	0.941431	1.44666	-0.513778	0.933934	1.39147	-0.581262	1.13705	1.49954	-0.176669	1.11377	1.01286	-0.213047	0.514721	0.554204	-0.279504	1.21746	1.1127	-0.152947	1.08297	1.20706	-0.0758695	1.17818	1.05984	-0.133263	0.991642	1.24092	-0.0601134	0.957111	1.23758	-0.125989	0.444332	0.360757	-0.207461	0.950286	1.06321	-0.281245	0.830916	0.457345	-0.286526	0.766941	0.503081	-0.225778	0.649101	0.44825	-0.272631	1.03242	0.852214	-0.171742	1.05263	0.699451	-0.221662	0.967997	0.628392	-0.230479	0.476723	0.349168	-0.309217	1.11337	1.42522	-0.122648	1.10895	1.33485	-0.128016	1.02386	1.35009	-0.0980422
124	1.66667	1.05881	1.53278	-0.357995	1.16734	1.44465	-0.345322	1.06984	1.4929	-0.53201	1.11105	1.02982	-0.446336	1.2509	0.139789	-0.382929	1.03265	1.16399	-0.560963	0.880726	1.28486	-0.601471	0.983446	1.12069	-0.57729	0.817774	1.3354	-0.585399	0.815441	1.33592	-0.511764	1.44638	0.0775547	-0.439227	0.945959	1.05854	-0.379043	1.33136	0.466596	-0.429786	1.30624	0.362043	-0.47145	1.34961	0.272886	-0.406117	1.09037	0.868248	-0.525417	1.20166	0.796213	-0.509961	1.18433	0.658701	-0.484136	1.45617	0.133932	-0.348596	1.00308	1.46367	-0.572146	0.943136	1.43867	-0.517831	0.937516	1.38214	-0.58462	1.13693	1.49441	-0.177756	1.11458	1.00814	-0.212471	0.532361	0.570848	-0.285683	1.20731	1.09767	-0.14729	1.076	1.20139	-0.0750952	1.16375	1.04781	-0.12907	0.986626	1.23921	-0.0606253	0.95267	1.23586	-0.126308	0.454624	0.384466	-0.203602	0.950364	1.05701	-0.27998	0.843663	0.456183	-0.284958	0.781246	0.507518	-0.22661	0.661438	0.457887	-0.27287	1.03672	0.847802	-0.171484	1.05988	0.694779	-0.219165	0.977621	0.62203	-0.231037	0.485157	0.366477	-0.305083	1.11205	1.42084	-0.123387	1.10564	1.32994	-0.128984	1.02165	1.34712	-0.0986826
125	1.675	1.05958	1.52702	-0.359891	1.16769	1.43826	-0.345992	1.07165	1.48508	-0.533932	1.11085	1.02529	-0.446816	1.23374	0.133029	-0.381859	1.0408	1.15659	-0.561215	0.886543	1.27299	-0.605275	0.992945	1.11178	-0.577945	0.822441	1.32226	-0.590477	0.81866	1.32363	-0.516906	1.42694	0.0638446	-0.437237	0.945246	1.05321	-0.377977	1.32282	0.457626	-0.428316	1.29527	0.352954	-0.470028	1.33658	0.262415	-0.404677	1.08989	0.862749	-0.524715	1.20016	0.790682	-0.509771	1.1813	0.653348	-0.483728	1.43767	0.118237	-0.345507	1.00566	1.45398	-0.575437	0.944397	1.42937	-0.522614	0.941294	1.37119	-0.588317	1.1363	1.48863	-0.178645	1.1152	1.00249	-0.212029	0.551517	0.585433	-0.291735	1.19577	1.08193	-0.141385	1.06861	1.19495	-0.0741266	1.1481	1.03536	-0.124715	0.981265	1.23682	-0.0612829	0.949036	1.23337	-0.126758	0.467959	0.406029	-0.200524	0.950434	1.05041	-0.279022	0.857755	0.454451	-0.283328	0.797202	0.510809	-0.227161	0.675582	0.46635	-0.273098	1.04044	0.842869	-0.171035	1.06766	0.689559	-0.216518	0.988036	0.615272	-0.231301	0.496625	0.382258	-0.301416	1.11008	1.41558	-0.123975	1.10172	1.32446	-0.129719	1.01887	1.34319	-0.0991813
126	1.68333	1.06006	1.52047	-0.361677	1.16798	1.43136	-0.346571	1.07335	1.47644	-0.535758	1.11088	1.01988	-0.446926	1.21194	0.125945	-0.381838	1.04933	1.14834	-0.561467	0.892808	1.2599	-0.609411	1.00299	1.10192	-0.578432	0.827544	1.30773	-0.59586	0.82212	1.30994	-0.522438	1.40431	0.049901	-0.43493	0.944807	1.0474	-0.377055	1.31363	0.447217	-0.426324	1.28302	0.343029	-0.468712	1.32057	0.250697	-0.403648	1.08924	0.856627	-0.522657	1.19936	0.786771	-0.508979	1.17913	0.64792	-0.48373	1.41435	0.102461	-0.34091	1.00844	1.44292	-0.578841	0.945351	1.41872	-0.528014	0.945338	1.3587	-0.592247	1.13523	1.48225	-0.179379	1.11573	0.996241	-0.21191	0.571931	0.597974	-0.297183	1.18286	1.06565	-0.135417	1.06079	1.18771	-0.0729435	1.13134	1.02268	-0.120288	0.975615	1.23378	-0.0621037	0.945933	1.2304	-0.127448	0.484102	0.424845	-0.198248	0.950459	1.04351	-0.278462	0.873095	0.452123	-0.281455	0.814669	0.513066	-0.227446	0.691419	0.473512	-0.273286	1.04373	0.837215	-0.17057	1.07607	0.683934	-0.213665	0.999315	0.607996	-0.231119	0.510847	0.39627	-0.298393	1.10763	1.40951	-0.124531	1.09737	1.3186	-0.130296	1.0155	1.3385	-0.0997507
127	1.69167	1.06022	1.51319	-0.363439	1.16819	1.42403	-0.347072	1.07496	1.46715	-0.537501	1.11099	1.01351	-0.446627	1.18479	0.118271	-0.382029	1.05821	1.1393	-0.561664	0.899602	1.24568	-0.61375	1.01357	1.09123	-0.578726	0.833192	1.29203	-0.601504	0.825983	1.29497	-0.528289	1.378	0.0390145	-0.43335	0.944595	1.04089	-0.376363	1.30399	0.435501	-0.424443	1.26902	0.332323	-0.467048	1.30053	0.238123	-0.402295	1.08865	0.849996	-0.519859	1.19861	0.783473	-0.507003	1.17722	0.642138	-0.483661	1.3865	0.0895992	-0.335832	1.01136	1.43071	-0.582275	0.946221	1.4067	-0.533786	0.949744	1.3448	-0.596262	1.13372	1.47534	-0.18001	1.11619	0.989633	-0.212111	0.59353	0.608452	-0.301608	1.16859	1.04901	-0.129468	1.05248	1.17972	-0.0715863	1.1136	1.00995	-0.115823	0.969698	1.23017	-0.063103	0.942455	1.22722	-0.128419	0.502766	0.440422	-0.196711	0.950375	1.03634	-0.278236	0.889647	0.449216	-0.279297	0.833491	0.514355	-0.22745	0.708888	0.479216	-0.273422	1.04676	0.830727	-0.17031	1.08504	0.677986	-0.210592	1.01141	0.600086	-0.230375	0.52746	0.408291	-0.296199	1.10483	1.40277	-0.125138	1.09272	1.31247	-0.130823	1.0116	1.33326	-0.100611
128	1.7	1.06	1.5053	-0.365267	1.16834	1.41633	-0.347477	1.07649	1.45743	-0.539274	1.1109	1.00619	-0.446181	1.15255	0.110183	-0.381456	1.06748	1.12961	-0.561678	0.907004	1.23044	-0.618142	1.02472	1.07984	-0.578827	0.83949	1.27539	-0.607328	0.830423	1.27885	-0.534325	1.34787	0.0333318	-0.432957	0.944343	1.03352	-0.37605	1.2936	0.422672	-0.422729	1.25264	0.321282	-0.464545	1.27605	0.225532	-0.399612	1.08808	0.842675	-0.517187	1.19764	0.779568	-0.503807	1.1755	0.635902	-0.483563	1.35495	0.081414	-0.331601	1.01429	1.41753	-0.585678	0.947219	1.39331	-0.539669	0.954621	1.32962	-0.600205	1.13175	1.46802	-0.180566	1.11642	0.982791	-0.212519	0.616292	0.616779	-0.304745	1.15306	1.03227	-0.123501	1.04361	1.17112	-0.070137	1.09503	0.997349	-0.1113	0.963508	1.22605	-0.0643235	0.937655	1.22387	-0.129656	0.523581	0.452418	-0.195802	0.950016	1.02878	-0.2782	0.907473	0.44581	-0.277012	0.853503	0.51457	-0.227091	0.72792	0.4833	-0.273494	1.04963	0.823295	-0.170424	1.09451	0.6717	-0.2075	1.02432	0.591544	-0.229013	0.546098	0.418098	-0.294956	1.10169	1.39558	-0.125811	1.08787	1.30609	-0.131421	1.00726	1.32763	-0.10187
129	1.70833	1.05946	1.49702	-0.367213	1.1685	1.40842	-0.347728	1.07797	1.44758	-0.541244	1.11033	0.998183	-0.445995	1.117	0.10259	-0.379455	1.07722	1.11946	-0.561344	0.915178	1.21434	-0.622394	1.03654	1.06797	-0.578712	0.846552	1.25799	-0.613215	0.835563	1.26171	-0.540376	1.31476	0.0326135	-0.433334	0.943693	1.02541	-0.376263	1.28174	0.409178	-0.420438	1.23368	0.310803	-0.461024	1.24817	0.214148	-0.395102	1.08716	0.834502	-0.515383	1.19661	0.774016	-0.500193	1.17413	0.629034	-0.483774	1.32114	0.0775247	-0.328867	1.0172	1.40344	-0.589001	0.948488	1.37867	-0.545547	0.960076	1.31334	-0.603931	1.12923	1.46049	-0.18105	1.11617	0.975796	-0.213097	0.640052	0.622803	-0.306549	1.13644	1.01572	-0.117432	1.03413	1.1621	-0.0686774	1.07583	0.985061	-0.10667	0.957044	1.22149	-0.0658509	0.93132	1.2201	-0.131163	0.546102	0.46062	-0.195404	0.949138	1.0208	-0.278281	0.926703	0.442063	-0.274876	0.874534	0.513476	-0.226235	0.748413	0.485655	-0.273468	1.05238	0.814872	-0.170917	1.10448	0.665162	-0.204735	1.03814	0.582602	-0.227046	0.566433	0.425409	-0.29466	1.09812	1.38811	-0.126505	1.08278	1.29943	-0.132201	1.00255	1.32173	-0.10348
130	1.71667	1.05869	1.48872	-0.369256	1.16871	1.40053	-0.347742	1.07937	1.4379	-0.543516	1.10913	0.990029	-0.446348	1.08072	0.0967459	-0.375939	1.08765	1.10915	-0.560501	0.924454	1.19766	-0.626243	1.04924	1.05594	-0.578267	0.854542	1.23996	-0.619045	0.841428	1.24368	-0.546306	1.2802	0.0347334	-0.433607	0.942414	1.01706	-0.377008	1.26781	0.395942	-0.416609	1.21276	0.301856	-0.456721	1.21901	0.205059	-0.389215	1.08544	0.82579	-0.514733	1.19554	0.766232	-0.497471	1.17285	0.621216	-0.484341	1.2867	0.0760668	-0.32726	1.02025	1.38853	-0.592169	0.950148	1.36303	-0.551494	0.966226	1.29632	-0.607313	1.12613	1.45301	-0.18145	1.11528	0.968803	-0.213962	0.664349	0.626341	-0.307181	1.11901	0.99969	-0.111221	1.02406	1.15289	-0.0672745	1.05621	0.97333	-0.10189	0.950331	1.21656	-0.0677986	0.924186	1.21561	-0.133039	0.56984	0.464884	-0.195408	0.947558	1.01264	-0.278548	0.947462	0.43822	-0.273126	0.896436	0.510945	-0.22478	0.770245	0.486265	-0.273279	1.0549	0.805713	-0.171619	1.11502	0.658831	-0.202526	1.05311	0.573797	-0.224562	0.588216	0.429851	-0.295161	1.09406	1.38059	-0.127163	1.07744	1.29255	-0.133216	0.997537	1.31561	-0.105299
131	1.725	1.05787	1.48078	-0.371305	1.16898	1.39299	-0.347456	1.08075	1.42865	-0.546043	1.10734	0.98237	-0.447215	1.04575	0.0934381	-0.371389	1.09903	1.09914	-0.559007	0.935297	1.18094	-0.629358	1.06309	1.04421	-0.577263	0.863715	1.22148	-0.62473	0.847974	1.22501	-0.55209	1.24565	0.0373011	-0.433115	0.940529	1.00928	-0.378058	1.2519	0.384156	-0.411033	1.19107	0.294897	-0.452102	1.19054	0.198586	-0.383067	1.08263	0.817436	-0.514995	1.19373	0.756276	-0.496656	1.17045	0.612253	-0.484658	1.25282	0.0752309	-0.325914	1.02384	1.37313	-0.595036	0.952412	1.34686	-0.557609	0.973218	1.2792	-0.610241	1.12252	1.44587	-0.181763	1.11373	0.962037	-0.215219	0.688423	0.627226	-0.30694	1.10105	0.984555	-0.10496	1.01345	1.14383	-0.0660306	1.03638	0.962487	-0.0969578	0.943392	1.21136	-0.0702747	0.917318	1.21033	-0.13546	0.59434	0.465095	-0.195712	0.945298	1.00486	-0.279133	0.969775	0.434644	-0.271827	0.919112	0.507244	-0.222751	0.793296	0.48522	-0.27285	1.05717	0.796574	-0.1723	1.12623	0.653597	-0.200811	1.06943	0.565962	-0.221732	0.611304	0.430979	-0.296188	1.08952	1.37323	-0.12777	1.07186	1.28572	-0.134397	0.992214	1.30934	-0.107216
132	1.73333	1.05713	1.47363	-0.37323	1.1692	1.38619	-0.346868	1.08217	1.42007	-0.54861	1.10517	0.975737	-0.448318	1.01259	0.0924781	-0.366656	1.11161	1.09008	-0.556742	0.948104	1.16495	-0.631443	1.07832	1.03344	-0.575419	0.87438	1.2029	-0.630194	0.855217	1.20609	-0.557832	1.21184	0.0389646	-0.431803	0.938279	1.00289	-0.379031	1.23468	0.374642	-0.404751	1.16947	0.289597	-0.447677	1.16333	0.194129	-0.377757	1.07883	0.810459	-0.515654	1.18984	0.744912	-0.497815	1.16509	0.602438	-0.483749	1.21983	0.0742752	-0.324246	1.02839	1.35805	-0.597385	0.955623	1.33085	-0.563699	0.981193	1.26291	-0.612636	1.1186	1.43937	-0.181986	1.11161	0.955701	-0.216706	0.711387	0.625349	-0.306177	1.08278	0.970743	-0.0988826	1.00243	1.1354	-0.0651622	1.01651	0.952945	-0.0919476	0.936201	1.2062	-0.0733489	0.911256	1.20463	-0.138579	0.6193	0.461164	-0.196218	0.942603	0.998172	-0.280073	0.99351	0.431828	-0.270845	0.9425	0.503115	-0.220336	0.817399	0.482696	-0.272144	1.05925	0.788597	-0.172837	1.13813	0.650488	-0.199321	1.08714	0.56007	-0.218797	0.635675	0.428396	-0.297434	1.08467	1.36634	-0.128373	1.06613	1.27938	-0.135584	0.986573	1.30315	-0.109255
